<?xml version="1.0" encoding="utf-8"?>
<!-- Generator: Adobe Illustrator 23.0.1, SVG Export Plug-In . SVG Version: 6.00 Build 0)  -->
<svg version="1.1" id="Layer_1" xmlns="http://www.w3.org/2000/svg" xmlns:xlink="http://www.w3.org/1999/xlink" x="0px" y="0px"
	 viewBox="0 0 300 300" style="enable-background:new 0 0 300 300;" xml:space="preserve">
<style type="text/css">
	.st0{fill:#BC2328;}
	.st1{fill:#FFFFFF;}
</style>
<rect class="st0" width="300" height="300"/>
<line class="st1" x1="82.91" y1="198.58" x2="253.73" y2="198.58"/>
<rect x="82.91" y="197.75" class="st1" width="170.82" height="1.66"/>
<line class="st1" x1="47.39" y1="198.58" x2="58.32" y2="198.58"/>
<rect x="47.39" y="197.75" class="st1" width="10.93" height="1.66"/>
<path class="st1" d="M52.81,209.04c-0.03,0.74-0.03,1.92-0.03,2.64c0.14,0.01,0.31,0.01,0.55,0.01c1.24,0,1.86-0.47,1.86-1.34
	c0-0.83-0.64-1.31-1.86-1.31C53.13,209.04,52.94,209.04,52.81,209.04 M52.87,216.45H50.7c0.07-1.63,0.09-2.59,0.09-4.25
	c0-1.79-0.01-2.8-0.09-4.56h2.92c2.2,0,3.62,0.8,3.62,2.54c0,1.05-0.67,1.8-1.6,2.23c0.51,0.94,1.59,2.7,2.25,3.61l-2.23,0.8
	c-0.62-1.09-1.36-2.66-1.87-3.79c-0.32,0-0.69,0-1,0C52.78,214.29,52.82,215.39,52.87,216.45z"/>
<path class="st1" d="M67.07,208.92c-1.67,0-2.54,1.34-2.54,3.12c0,1.77,0.91,3.12,2.54,3.12c1.64,0,2.51-1.34,2.51-3.12
	S68.66,208.92,67.07,208.92 M67.07,207.5c2.95,0,4.81,1.85,4.81,4.45c0,2.65-1.99,4.64-4.81,4.64c-2.97,0-4.82-1.82-4.82-4.4
	C62.25,209.51,64.21,207.5,67.07,207.5z"/>
<path class="st1" d="M80.19,216.45h-2.18c0.09-1.75,0.11-2.76,0.11-4.56c0-1,0-1.87-0.04-2.83c-1.17,0-2.01,0.01-2.95,0.09l0.5-1.51
	h7.36v1.46c-0.76-0.04-1.77-0.04-2.86-0.04c-0.03,1-0.04,1.77-0.04,2.83C80.1,213.69,80.11,214.7,80.19,216.45"/>
<path class="st1" d="M90.22,216.45h-2.18c0.07-1.63,0.09-2.59,0.09-4.25c0-1.79-0.01-2.8-0.09-4.56h2.18
	c-0.08,1.75-0.09,2.76-0.09,4.56C90.13,213.86,90.16,214.82,90.22,216.45"/>
<path class="st1" d="M101.62,209.29c-0.51-0.23-1.2-0.39-1.96-0.39c-0.92,0-1.38,0.39-1.38,0.88c0,0.49,0.25,0.78,1.31,1.23
	l0.75,0.32c1.35,0.56,1.99,1.35,1.99,2.6c0,1.57-1.51,2.65-3.44,2.65c-1.17,0-2.2-0.18-2.97-0.54l0.49-1.39
	c0.68,0.31,1.57,0.52,2.34,0.52c0.96,0,1.46-0.4,1.46-0.97c0-0.53-0.27-0.88-1.31-1.31l-0.92-0.38c-1.19-0.49-1.79-1.31-1.79-2.48
	c0-1.38,1.39-2.56,3.38-2.56c1.07,0,1.84,0.13,2.56,0.4L101.62,209.29"/>
<path class="st1" d="M112.7,209.29c-0.5-0.23-1.2-0.39-1.96-0.39c-0.92,0-1.38,0.39-1.38,0.88c0,0.49,0.25,0.78,1.31,1.23l0.75,0.32
	c1.35,0.56,1.99,1.35,1.99,2.6c0,1.57-1.51,2.65-3.44,2.65c-1.17,0-2.2-0.18-2.97-0.54l0.49-1.39c0.68,0.31,1.57,0.52,2.34,0.52
	c0.96,0,1.47-0.4,1.47-0.97c0-0.53-0.28-0.88-1.32-1.31l-0.92-0.38c-1.19-0.49-1.79-1.31-1.79-2.48c0-1.38,1.39-2.56,3.38-2.56
	c1.07,0,1.84,0.13,2.56,0.4L112.7,209.29"/>
<path class="st1" d="M121.59,209.06c-0.03,0.71-0.03,1.4-0.03,2.19c1.2,0,2.28-0.03,3.16-0.06v1.51c-0.89-0.06-1.98-0.06-3.16-0.06
	c0,0.87,0,1.62,0.03,2.4c1.28,0,2.67-0.01,3.62-0.06l-0.51,1.47h-5.22c0.07-1.63,0.1-2.59,0.1-4.25c0-1.79-0.02-2.8-0.1-4.56h5.37
	v1.43C124.06,209.06,122.8,209.06,121.59,209.06"/>
<path class="st1" d="M133.27,209.04c-0.03,0.74-0.03,1.92-0.03,2.64c0.13,0.01,0.31,0.01,0.54,0.01c1.24,0,1.86-0.47,1.86-1.34
	c0-0.83-0.63-1.31-1.86-1.31C133.59,209.04,133.41,209.04,133.27,209.04 M133.34,216.45h-2.17c0.07-1.63,0.09-2.59,0.09-4.25
	c0-1.79-0.01-2.8-0.09-4.56h2.92c2.2,0,3.62,0.8,3.62,2.54c0,1.05-0.68,1.8-1.62,2.23c0.52,0.94,1.6,2.7,2.25,3.61l-2.23,0.8
	c-0.61-1.09-1.36-2.66-1.87-3.79c-0.32,0-0.69,0-1,0C133.25,214.29,133.28,215.39,133.34,216.45z"/>
<path class="st1" d="M146.44,216.45h-2.18c0.07-1.63,0.09-2.59,0.09-4.25c0-1.79-0.01-2.8-0.09-4.56h2.18
	c-0.08,1.75-0.09,2.76-0.09,4.56C146.35,213.86,146.38,214.82,146.44,216.45"/>
<path class="st1" d="M155.4,209.06c-0.03,0.71-0.03,1.4-0.03,2.19c1.21,0,2.28-0.03,3.16-0.06v1.51c-0.89-0.06-1.98-0.06-3.16-0.06
	c0,0.87,0,1.62,0.03,2.4c1.28,0,2.67-0.01,3.62-0.06l-0.51,1.47h-5.22c0.07-1.63,0.09-2.59,0.09-4.25c0-1.79-0.01-2.8-0.09-4.56
	h5.36v1.43C157.87,209.06,156.6,209.06,155.4,209.06"/>
<path class="st1" d="M178.59,214.71c-0.8-0.62-2.02-1.65-2.68-2.25c-0.71,0.38-0.98,0.84-0.98,1.41c0,0.8,0.74,1.34,1.69,1.34
	C177.41,215.21,178.02,215.11,178.59,214.71 M176.18,209.68c0,0.4,0.1,0.64,0.49,1.06c0.71,0.76,2.42,2.17,3.29,2.8
	c0.47-0.64,0.64-1.46,0.64-2.86h1.87c0,1.41-0.56,2.61-1.46,3.63c0.64,0.48,1.66,1.16,2.33,1.53l-1.85,1.02
	c-0.49-0.32-1.36-0.95-1.88-1.38c-0.92,0.75-1.94,1.1-3.24,1.1c-2.1,0-3.34-0.99-3.34-2.37c0-1.09,0.86-2.03,2.12-2.5
	c-0.64-0.63-0.94-1.24-0.94-1.96c0-1.24,1.29-2.26,3.09-2.26c0.73,0,1.41,0.11,1.85,0.3l-0.44,1.3c-0.38-0.13-0.83-0.2-1.29-0.2
	C176.55,208.89,176.18,209.24,176.18,209.68z"/>
<path class="st1" d="M204.46,216.09c-0.95,0.32-1.96,0.49-3.48,0.49c-2.5,0-4.73-1.63-4.73-4.25c0-2.88,2.16-4.84,5.23-4.84
	c1.17,0,2.14,0.22,2.88,0.52l-0.48,1.4c-0.64-0.28-1.54-0.49-2.3-0.49c-2.02,0-3.17,1.17-3.17,3.12c0,2.01,1.26,3.14,2.81,3.14
	c0.48,0,0.76-0.03,1.06-0.11c0.01-0.47,0.03-0.85,0.03-1.35c0-0.43-0.01-0.98-0.03-1.38h2.17c-0.03,0.64-0.07,1.12-0.07,1.78
	C204.39,214.88,204.41,215.37,204.46,216.09"/>
<path class="st1" d="M212.82,209.04c-0.03,0.74-0.03,1.92-0.03,2.64c0.13,0.01,0.31,0.01,0.54,0.01c1.24,0,1.86-0.47,1.86-1.34
	c0-0.83-0.63-1.31-1.86-1.31C213.14,209.04,212.95,209.04,212.82,209.04 M212.88,216.45h-2.18c0.08-1.63,0.1-2.59,0.1-4.25
	c0-1.79-0.01-2.8-0.1-4.56h2.93c2.19,0,3.62,0.8,3.62,2.54c0,1.05-0.68,1.8-1.62,2.23c0.52,0.94,1.6,2.7,2.25,3.61l-2.23,0.8
	c-0.61-1.09-1.36-2.66-1.87-3.79c-0.32,0-0.69,0-1,0C212.79,214.29,212.83,215.39,212.88,216.45z"/>
<path class="st1" d="M225.99,216.45h-2.18c0.07-1.63,0.09-2.59,0.09-4.25c0-1.79-0.01-2.8-0.09-4.56h2.18
	c-0.08,1.75-0.09,2.76-0.09,4.56C225.89,213.86,225.92,214.82,225.99,216.45"/>
<path class="st1" d="M234.94,215.03c1.28,0,2.75-0.02,3.7-0.08l-0.52,1.51h-5.29c0.08-1.63,0.1-2.59,0.1-4.25
	c0-1.79-0.01-2.8-0.1-4.56h2.18c-0.08,1.75-0.09,2.76-0.09,4.56C234.92,213.2,234.92,214.06,234.94,215.03"/>
<path class="st1" d="M246.4,215.03c1.27,0,2.75-0.02,3.7-0.08l-0.52,1.51h-5.3c0.08-1.63,0.11-2.59,0.11-4.25
	c0-1.79-0.02-2.8-0.11-4.56h2.18c-0.07,1.75-0.08,2.76-0.08,4.56C246.37,213.2,246.37,214.06,246.4,215.03"/>
<polyline class="st1" points="109.62,139.03 100.34,139.03 100.34,158.89 88.12,158.89 88.12,139.03 77.57,139.03 78.91,140.38 
	78.91,187.61 88.12,187.61 88.12,165.47 100.34,165.47 100.34,187.61 111.03,187.61 109.62,186.19 109.62,139.03 "/>
<polyline class="st1" points="147.12,87.25 141.34,113.13 133.98,86.12 127.41,86.12 119.94,113.23 113.73,87.21 115.03,85.94 
	104.89,85.93 116.23,127.89 122.57,127.91 130.47,99.64 138.08,127.9 144.55,127.91 155.76,85.96 145.98,85.97 147.12,87.25 "/>
<polyline class="st1" points="163.49,127.94 173.23,127.94 171.78,126.49 171.78,85.96 162.09,85.96 163.49,87.33 163.49,127.94 "/>
<polyline class="st1" points="173.6,181.68 173.6,139.03 162.88,139.03 164.22,140.38 164.22,187.61 187.51,187.61 189.97,180.69 
	187.99,181.68 173.6,181.68 "/>
<polyline class="st1" points="204.52,182.02 204.52,163.95 214.36,163.95 217.39,158.44 204.52,158.44 204.52,144.49 217.04,144.5 
	218.75,145.33 216.51,139 194.11,139 195.44,140.41 195.44,158.44 192.4,158.44 189.86,163.95 195.44,163.95 195.44,187.61 
	218.36,187.61 220.75,181.01 218.91,182.02 204.52,182.02 "/>
<polyline class="st1" points="251.06,144.58 253.34,139.01 224.06,139.01 221.48,145.47 223.22,144.58 232.79,144.58 232.79,187.6 
	243.41,187.6 241.92,186.14 241.92,144.58 251.06,144.58 "/>
<path class="st1" d="M131.27,169.15l4.67-21.58h0.09l4.6,21.58H131.27 M129.25,139.03l1.25,1.36l-11.15,47.21h9.68l-1.35-1.36
	L130,175.2h11.81l2.24,11.06l-1.31,1.32l11.5-0.01l-11.27-48.54H129.25z"/>
<path class="st1" d="M102.17,115.78c-0.04-5.05-2.9-8.83-6.03-12.57c-3.03-3.62-4.13-5.48-4.24-7.95c-0.09-2.28,1.17-4.52,3.84-5.33
	c1.26-0.38,2.9-0.44,3.65-0.18l-4.57-5.33c-7.57,1.05-11.02,5.97-11.17,10.91c-0.13,4.19,1.74,7.71,4.68,11.22
	c3.15,3.78,5.56,6.91,5.52,9.8c-0.04,3-1.67,5.44-5.83,7.03c-1.68,0.64-2.91,0.66-4.06,0.49l5.49,5.42
	C99.21,127.24,102.21,120.77,102.17,115.78"/>
<path class="st1" d="M223.19,115.78c-0.04-5.05-2.9-8.83-6.03-12.57c-3.02-3.62-4.13-5.48-4.23-7.95c-0.09-2.28,1.17-4.52,3.84-5.33
	c1.25-0.38,2.9-0.44,3.65-0.18l-4.56-5.33c-7.57,1.05-11.02,5.97-11.17,10.91c-0.13,4.19,1.74,7.71,4.68,11.22
	c3.15,3.78,5.56,6.91,5.51,9.8c-0.04,3-1.66,5.44-5.82,7.03c-1.68,0.64-2.92,0.66-4.06,0.49l5.49,5.42
	C220.23,127.24,223.23,120.77,223.19,115.78"/>
<path class="st1" d="M199.93,115.78c-0.04-5.05-2.9-8.83-6.03-12.57c-3.03-3.62-4.13-5.48-4.23-7.95c-0.09-2.28,1.16-4.52,3.83-5.33
	c1.26-0.38,2.9-0.44,3.65-0.18l-4.57-5.33c-7.56,1.05-11.02,5.97-11.17,10.91c-0.13,4.19,1.74,7.71,4.68,11.22
	c3.15,3.78,5.56,6.91,5.51,9.8c-0.04,3-1.67,5.44-5.82,7.03c-1.67,0.64-2.91,0.66-4.06,0.49l5.49,5.42
	C196.98,127.24,199.97,120.77,199.93,115.78"/>
<path class="st1" d="M74.14,192.34c-13.88-4.79-19.72-16.38-19.72-30.56c0.01-21.39,14.54-29.71,19.69-29.72
	c0.74,0,1.58,0.09,1.96,0.3l-5.59-7.86c-16.91,4.19-26.69,19.78-26.68,37.34c0.01,22.04,12.22,34.53,27.01,38.13l6.47-7.63
	C76.7,192.5,75.46,192.8,74.14,192.34"/>
<path class="st1" d="M251.42,182.82c-0.01,0.33-0.01,1.05-0.01,1.43c0.08,0.01,0.23,0.01,0.42,0.01c0.74,0,1.07-0.26,1.07-0.77
	c0-0.45-0.31-0.67-1.09-0.67C251.65,182.82,251.5,182.82,251.42,182.82 M251.44,186.65h-0.98c0.06-0.83,0.06-1.31,0.06-2.16
	c0-0.89,0-1.41-0.06-2.28h1.39c1.3,0,2.01,0.42,2.01,1.22c0,0.56-0.34,0.96-0.92,1.21c0.3,0.5,0.87,1.36,1.24,1.84l-1.02,0.3
	c-0.35-0.57-0.81-1.35-1.11-1.94c-0.2,0-0.46,0-0.63,0C251.41,185.49,251.41,186.1,251.44,186.65z M252.11,187.43
	c1.79,0,3.26-1.36,3.26-2.99c0-1.62-1.47-2.98-3.26-2.98c-1.8,0-3.27,1.36-3.27,2.98C248.84,186.07,250.31,187.43,252.11,187.43z
	 M252.11,187.99c-2.15,0-3.88-1.59-3.88-3.55c0-1.96,1.73-3.55,3.88-3.55c2.15,0,3.88,1.59,3.88,3.55
	C255.99,186.4,254.26,187.99,252.11,187.99z"/>
</svg>
